<svg width="19" height="16" viewBox="0 0 19 16" fill="none" xmlns="http://www.w3.org/2000/svg">
<path id="Vector" d="M10.0422 2.92108C10.3962 2.68818 10.6322 2.26563 10.6322 1.78985C10.6322 1.05455 10.0763 0.458984 9.39005 0.458984C8.70377 0.458984 8.14791 1.05455 8.14791 1.78985C8.14791 2.26896 8.38392 2.68818 8.73793 2.92108L6.95857 6.734C6.67598 7.33954 5.94312 7.51256 5.44937 7.09001L2.6825 4.71774C2.83777 4.49482 2.93093 4.21867 2.93093 3.91923C2.93093 3.18393 2.37508 2.58836 1.68879 2.58836C1.00251 2.58836 0.446655 3.18393 0.446655 3.91923C0.446655 4.65453 1.00251 5.25009 1.68879 5.25009C1.695 5.25009 1.70432 5.25009 1.71053 5.25009L3.12967 13.6146C3.30047 14.626 4.12338 15.3646 5.08604 15.3646H13.6941C14.6536 15.3646 15.4765 14.6293 15.6504 13.6146L17.0696 5.25009C17.0758 5.25009 17.0851 5.25009 17.0913 5.25009C17.7776 5.25009 18.3334 4.65453 18.3334 3.91923C18.3334 3.18393 17.7776 2.58836 17.0913 2.58836C16.405 2.58836 15.8492 3.18393 15.8492 3.91923C15.8492 4.21867 15.9423 4.49482 16.0976 4.71774L13.3307 7.09001C12.837 7.51256 12.1041 7.33954 11.8215 6.734L10.0422 2.92108Z" fill="#FBE098"/>
</svg>
