<svg width="9" height="14" viewBox="0 0 9 14" fill="none" xmlns="http://www.w3.org/2000/svg">
<path d="M4.49986 1.31256C4.49986 0.96445 4.64203 0.630595 4.89507 0.384441C5.14812 0.138288 5.49133 0 5.84919 0C6.20706 0 6.55026 0.138288 6.80331 0.384441C7.05636 0.630595 7.19852 0.96445 7.19852 1.31256C7.19852 1.66068 7.05636 1.99453 6.80331 2.24069C6.55026 2.48684 6.20706 2.62513 5.84919 2.62513C5.49133 2.62513 5.14812 2.48684 4.89507 2.24069C4.64203 1.99453 4.49986 1.66068 4.49986 1.31256ZM3.55815 5.44988C3.53004 5.46081 3.50474 5.47175 3.47662 5.48269L3.25174 5.5784C2.79072 5.77802 2.43652 6.15811 2.27629 6.62298L2.2032 6.83627C2.04578 7.29567 1.53697 7.54177 1.0647 7.38864C0.592439 7.23551 0.33944 6.74056 0.496861 6.28117L0.56995 6.06787C0.890415 5.13541 1.59881 4.37521 2.52085 3.97598L2.74574 3.88027C3.33045 3.62869 3.96294 3.49744 4.60388 3.49744C5.85762 3.49744 6.98769 4.23028 7.46838 5.35417L7.90129 6.3632L8.50287 6.65579C8.94702 6.87182 9.12693 7.39685 8.90486 7.8289C8.68278 8.26095 8.14305 8.43596 7.69889 8.21993L6.94552 7.85624C6.65598 7.71405 6.42828 7.47888 6.30459 7.18629L6.03472 6.55735L5.49218 8.34845L6.88368 9.82509C7.03547 9.98642 7.1423 10.1806 7.19852 10.3939L7.84507 12.9123C7.96595 13.38 7.67359 13.8558 7.19008 13.9733C6.70658 14.0909 6.22026 13.8065 6.09938 13.3362L5.48094 10.9271L3.49349 8.81879C3.07745 8.37853 2.92284 7.76327 3.08026 7.18629L3.55534 5.44988H3.55815ZM1.93333 10.8833L2.63611 9.17701C2.69514 9.25905 2.76261 9.33561 2.83288 9.41218L3.977 10.6263L3.56939 11.6162C3.50192 11.7803 3.40073 11.9307 3.27141 12.0564L1.53697 13.7436C1.18558 14.0855 0.614928 14.0855 0.26354 13.7436C-0.0878468 13.4018 -0.0878468 12.8467 0.26354 12.5049L1.93333 10.8833Z" fill="#ACACAC"/>
</svg>
