<svg width="26" height="30" viewBox="0 0 26 30" fill="none" xmlns="http://www.w3.org/2000/svg">
<g clip-path="url(#clip0_95_1257)">
<path d="M13.0005 0C11.9732 0 11.1433 0.837891 11.1433 1.875V3C6.90673 3.86719 3.71476 7.65234 3.71476 12.1875V13.2891C3.71476 16.043 2.71074 18.7031 0.90003 20.7656L0.470565 21.252C-0.0169347 21.8027 -0.133006 22.5938 0.162976 23.2676C0.458958 23.9414 1.12637 24.375 1.85762 24.375H24.1433C24.8746 24.375 25.5362 23.9414 25.838 23.2676C26.1398 22.5938 26.0179 21.8027 25.5304 21.252L25.1009 20.7656C23.2902 18.7031 22.2862 16.0488 22.2862 13.2891V12.1875C22.2862 7.65234 19.0942 3.86719 14.8576 3V1.875C14.8576 0.837891 14.0277 0 13.0005 0ZM15.6295 28.9043C16.3259 28.2012 16.7148 27.2461 16.7148 26.25H13.0005H9.28619C9.28619 27.2461 9.67503 28.2012 10.3715 28.9043C11.0679 29.6074 12.0139 30 13.0005 30C13.9871 30 14.9331 29.6074 15.6295 28.9043Z" fill="#513C38"/>
</g>
<defs>
<clipPath id="clip0_95_1257">
<rect width="26" height="30" fill="white"/>
</clipPath>
</defs>
</svg>
