<svg width="26" height="26" viewBox="0 0 26 26" fill="none" xmlns="http://www.w3.org/2000/svg">
<g clip-path="url(#clip0_183_10271)">
<path d="M1.10093 26C1.09318 26 1.08543 26 1.07768 25.9995H0.455219C0.2035 25.9995 -0.000793457 25.7947 -0.000793457 25.5424V0.457151C-0.000337445 0.204804 0.203956 0 0.455675 0H2.27699C2.52871 0 2.733 0.204804 2.733 0.457151V23.2576H25.5441C25.7958 23.2576 26.0001 23.4624 26.0001 23.7147V25.5337C26.0001 25.7861 25.7963 25.9909 25.5441 25.9909L1.10139 26.0005L1.10093 26Z" fill="#ACACAC"/>
<path d="M5.30709 18.324C5.24826 18.324 5.18898 18.3126 5.13243 18.2892C4.96189 18.2184 4.85107 18.052 4.85107 17.8668V14.1881C4.85107 14.067 4.89896 13.9504 4.98469 13.8649L10.1581 8.67856C10.2471 8.58942 10.3638 8.54462 10.4805 8.54462C10.5973 8.54462 10.714 8.58942 10.8029 8.67856L15.1866 13.0727L21.0632 7.18185L19.3646 5.47896C19.2342 5.34822 19.1954 5.15164 19.2656 4.98067C19.3363 4.8097 19.5023 4.69861 19.687 4.69861H25.544C25.7957 4.69861 26 4.90341 26 5.15576V11.0274C26 11.2121 25.8887 11.379 25.7187 11.4498C25.6621 11.4731 25.6028 11.4846 25.544 11.4846C25.4254 11.4846 25.3087 11.4379 25.2216 11.3506L23.543 9.66784L15.5095 17.721C15.4205 17.8102 15.3038 17.855 15.1871 17.855C15.0703 17.855 14.9536 17.8102 14.8646 17.721L10.481 13.3269L5.62994 18.19C5.54285 18.2774 5.42611 18.324 5.30754 18.324H5.30709Z" fill="#ACACAC"/>
</g>
<defs>
<clipPath id="clip0_183_10271">
<rect width="26" height="26" fill="white"/>
</clipPath>
</defs>
</svg>
