<svg width="24" height="24" viewBox="0 0 24 24" fill="none" xmlns="http://www.w3.org/2000/svg">
<g clip-path="url(#clip0_215_1444)">
<path d="M0 12C0 15.1826 1.26428 18.2348 3.51472 20.4853C5.76516 22.7357 8.8174 24 12 24C15.1826 24 18.2348 22.7357 20.4853 20.4853C22.7357 18.2348 24 15.1826 24 12C24 8.8174 22.7357 5.76516 20.4853 3.51472C18.2348 1.26428 15.1826 0 12 0C8.8174 0 5.76516 1.26428 3.51472 3.51472C1.26428 5.76516 0 8.8174 0 12ZM11.2969 17.6719C10.8562 18.1125 10.1438 18.1125 9.70781 17.6719C9.27188 17.2313 9.26719 16.5188 9.70781 16.0828L13.7859 12.0047L9.70781 7.92656C9.26719 7.48594 9.26719 6.77344 9.70781 6.3375C10.1484 5.90156 10.8609 5.89687 11.2969 6.3375L16.1719 11.2031C16.6125 11.6438 16.6125 12.3562 16.1719 12.7922L11.2969 17.6719Z" fill="#EBB625"/>
</g>
<defs>
<clipPath id="clip0_215_1444">
<rect width="24" height="24" fill="white"/>
</clipPath>
</defs>
</svg>
