<svg width="36" height="32" viewBox="0 0 36 32" fill="none" xmlns="http://www.w3.org/2000/svg">
<path d="M0 4.75C0 2.26797 2.01797 0.25 4.5 0.25H31.5C33.982 0.25 36 2.26797 36 4.75V27.25C36 29.732 33.982 31.75 31.5 31.75H4.5C2.01797 31.75 0 29.732 0 27.25V4.75ZM22.7672 12.2383C22.4508 11.7742 21.9305 11.5 21.375 11.5C20.8195 11.5 20.2922 11.7742 19.9828 12.2383L13.8656 21.2102L12.0023 18.8828C11.6789 18.482 11.1938 18.25 10.6875 18.25C10.1812 18.25 9.68906 18.482 9.37266 18.8828L4.87266 24.5078C4.46484 25.0141 4.3875 25.7102 4.66875 26.2937C4.95 26.8773 5.54063 27.25 6.1875 27.25H12.9375H15.1875H29.8125C30.4383 27.25 31.0148 26.9055 31.3031 26.35C31.5914 25.7945 31.5562 25.1266 31.2047 24.6133L22.7672 12.2383ZM7.875 11.5C8.77011 11.5 9.62855 11.1444 10.2615 10.5115C10.8944 9.87855 11.25 9.02011 11.25 8.125C11.25 7.22989 10.8944 6.37145 10.2615 5.73851C9.62855 5.10558 8.77011 4.75 7.875 4.75C6.97989 4.75 6.12145 5.10558 5.48851 5.73851C4.85558 6.37145 4.5 7.22989 4.5 8.125C4.5 9.02011 4.85558 9.87855 5.48851 10.5115C6.12145 11.1444 6.97989 11.5 7.875 11.5Z" fill="white"/>
</svg>
