<svg width="25" height="34" viewBox="0 0 25 34" fill="none" xmlns="http://www.w3.org/2000/svg">
<g clip-path="url(#clip0_95_1262)">
<path d="M24 12.75C24 14.008 23.5805 15.5994 22.8336 17.4041C22.0934 19.1926 21.064 21.1145 19.9181 23.0105C17.6271 26.8012 14.9166 30.4132 13.2568 32.532C12.8565 33.0387 12.1435 33.0387 11.7432 32.532C10.0834 30.4132 7.37292 26.8012 5.08191 23.0105C3.936 21.1145 2.9066 19.1926 2.16636 17.4041C1.41946 15.5994 1 14.008 1 12.75C1 6.24446 6.16982 1 12.5 1C18.8302 1 24 6.24446 24 12.75Z" stroke="#513C38" stroke-width="2"/>
<g clip-path="url(#clip1_95_1262)">
<path d="M18.7272 10.0879C19.0899 10.4541 19.0899 11.0488 18.7272 11.415L11.2986 18.915C10.9359 19.2812 10.3469 19.2812 9.98413 18.915L6.26985 15.165C5.90712 14.7988 5.90712 14.2041 6.26985 13.8379C6.63257 13.4717 7.22163 13.4717 7.58435 13.8379L10.6428 16.9229L17.4156 10.0879C17.7783 9.72168 18.3674 9.72168 18.7301 10.0879H18.7272Z" fill="#513C38"/>
</g>
</g>
<defs>
<clipPath id="clip0_95_1262">
<rect width="25" height="34" fill="white"/>
</clipPath>
<clipPath id="clip1_95_1262">
<rect width="13" height="15" fill="white" transform="translate(6 7)"/>
</clipPath>
</defs>
</svg>
