<svg width="46" height="46" viewBox="0 0 46 46" fill="none" xmlns="http://www.w3.org/2000/svg">
<path d="M17.25 11.5H13.4167C12.9083 11.5 12.4208 11.7019 12.0614 12.0614C11.7019 12.4208 11.5 12.9083 11.5 13.4167V17.25" stroke="white" stroke-width="2" stroke-linecap="round" stroke-linejoin="round"/>
<path d="M28.75 11.5H32.5833C33.0917 11.5 33.5792 11.7019 33.9386 12.0614C34.2981 12.4208 34.5 12.9083 34.5 13.4167V17.25" stroke="white" stroke-width="2" stroke-linecap="round" stroke-linejoin="round"/>
<path d="M34.5 28.75V32.5833C34.5 33.0917 34.2981 33.5792 33.9386 33.9386C33.5792 34.2981 33.0917 34.5 32.5833 34.5H28.75" stroke="white" stroke-width="2" stroke-linecap="round" stroke-linejoin="round"/>
<path d="M17.25 34.5H13.4167C12.9083 34.5 12.4208 34.2981 12.0614 33.9386C11.7019 33.5792 11.5 33.0917 11.5 32.5833V28.75" stroke="white" stroke-width="2" stroke-linecap="round" stroke-linejoin="round"/>
<path d="M11.5 23H34.5" stroke="white" stroke-width="2" stroke-linecap="round" stroke-linejoin="round"/>
</svg>
