<svg width="26" height="26" viewBox="0 0 26 26" fill="none" xmlns="http://www.w3.org/2000/svg">
<g clip-path="url(#clip0_215_1451)">
<path d="M1.10099 26C1.09324 26 1.08549 26 1.07774 25.9995H0.45528C0.203561 25.9995 -0.000732422 25.7947 -0.000732422 25.5424V0.457151C-0.00027641 0.204804 0.204017 0 0.455736 0H2.27705C2.52877 0 2.73306 0.204804 2.73306 0.457151V23.2575H25.5442C25.7959 23.2575 26.0002 23.4624 26.0002 23.7147V25.5337C26.0002 25.7861 25.7963 25.9909 25.5442 25.9909L1.10145 26.0005L1.10099 26Z" fill="white"/>
<path d="M5.30709 18.3239C5.24826 18.3239 5.18898 18.3124 5.13243 18.2891C4.96189 18.2183 4.85107 18.0519 4.85107 17.8667V14.188C4.85107 14.0669 4.89896 13.9503 4.98469 13.8648L10.1581 8.67844C10.2471 8.5893 10.3638 8.5445 10.4805 8.5445C10.5973 8.5445 10.714 8.5893 10.8029 8.67844L15.1866 13.0726L21.0632 7.18173L19.3646 5.47884C19.2342 5.3481 19.1954 5.15152 19.2656 4.98055C19.3363 4.80957 19.5023 4.69849 19.687 4.69849H25.544C25.7957 4.69849 26 4.90329 26 5.15564V11.0273C26 11.212 25.8887 11.3788 25.7187 11.4497C25.6621 11.473 25.6028 11.4844 25.544 11.4844C25.4254 11.4844 25.3087 11.4378 25.2216 11.3505L23.543 9.66772L15.5095 17.7209C15.4205 17.81 15.3038 17.8548 15.1871 17.8548C15.0703 17.8548 14.9536 17.81 14.8646 17.7209L10.481 13.3268L5.62994 18.1899C5.54285 18.2772 5.42611 18.3239 5.30754 18.3239H5.30709Z" fill="white"/>
</g>
<defs>
<clipPath id="clip0_215_1451">
<rect width="26" height="26" fill="white"/>
</clipPath>
</defs>
</svg>
